<?xml version="1.0" encoding="utf-8"?>
<!-- Generator: Adobe Illustrator 27.8.0, SVG Export Plug-In . SVG Version: 6.00 Build 0)  -->
<svg version="1.1" id="Layer_1" xmlns="http://www.w3.org/2000/svg" xmlns:xlink="http://www.w3.org/1999/xlink" x="0px" y="0px"
	 viewBox="0 0 387.84 616.05" style="enable-background:new 0 0 387.84 616.05;" xml:space="preserve">
<style type="text/css">
	.st0{fill:#1D1D1B;}
</style>
<g>
	<g>
		<path class="st0" d="M79.83,565.78h-0.09l-12.02-21.41H62.4v30.27h5.1v-21.41h0.09l12.15,21.41h5.19v-30.27h-5.1V565.78z
			 M157.43,544.38h-23.14v4.71h9.04v25.56h5.1v-25.56h9V544.38z M206.3,544.38h-5.1l-4.11,21.32H197l-7.13-21.32h-2.9l-7.18,21.32
			h-0.09l-4.11-21.32h-5.19l5.79,30.27h5.36l6.7-20.76h0.09l6.83,20.76h5.32L206.3,544.38z M320.22,544.38h-6.18l-11.29,13.49h-0.09
			v-13.49h-5.1v30.27h5.1v-9.82l2.72-3.46h0.09l9.82,13.28h6.14l-12.41-16.95L320.22,544.38z M135.27,593.23l-5.44,15.11h2.52
			l0.89-2.59h6.11l0.91,2.59h2.53l-5.44-15.11H135.27z M134,603.56l2.29-6.65h0.04l2.27,6.65H134z M167.01,595.58h4.51v12.75h2.55
			v-12.75h4.49v-2.35h-11.54v2.35H167.01z M186.69,616.05h2.81v-29.06h-2.81V616.05z M205.05,599.51c-3.32-1.12-3.82-1.47-3.82-2.44
			c0-0.99,0.76-1.79,2.46-1.79c1.92,0,2.65,1.04,3.02,2.37l2.48-0.6c-0.5-2.87-2.83-4.14-5.5-4.14c-3.19,0-4.96,2.01-4.96,4.19
			c0,1.96,1.19,3.34,4.42,4.36c3.48,1.08,3.99,1.58,3.99,2.81c0,1.25-1.08,2.05-2.93,2.05c-2.31,0-3.04-1.23-3.41-3.65l-2.68,0.58
			c0.45,3.6,2.61,5.42,6.06,5.42c3.43,0,5.46-2.01,5.46-4.55C209.64,601.88,208.69,600.74,205.05,599.51z M215.36,595.58h4.51v12.75
			h2.55v-12.75h4.49v-2.35h-11.55V595.58z M239.77,599.51c-3.32-1.12-3.82-1.47-3.82-2.44c0-0.99,0.76-1.79,2.46-1.79
			c1.92,0,2.66,1.04,3.02,2.37l2.48-0.6c-0.5-2.87-2.83-4.14-5.5-4.14c-3.19,0-4.96,2.01-4.96,4.19c0,1.96,1.19,3.34,4.42,4.36
			c3.47,1.08,3.99,1.58,3.99,2.81c0,1.25-1.08,2.05-2.94,2.05c-2.31,0-3.04-1.23-3.41-3.65l-2.68,0.58c0.45,3.6,2.61,5.42,6.06,5.42
			c3.43,0,5.46-2.01,5.46-4.55C244.36,601.88,243.41,600.74,239.77,599.51z M282.85,553.8c0-5.78-3.89-9.15-9.65-9.4v4.66
			c2.73,0.28,4.5,1.71,4.5,4.74c0,3.03-1.81,4.45-4.5,4.74v8.96l3.77,7.14h5.67l-6.53-12.06
			C280.13,561.54,282.85,558.52,282.85,553.8z M260.45,574.65h5.1v-11.63h4.55v-4.41h-4.55V549h4.55v-4.63h-9.65V574.65z
			 M160.97,597.93c0-2.89-1.94-4.57-4.82-4.69v2.33c1.36,0.14,2.25,0.85,2.25,2.37c0,1.51-0.9,2.22-2.25,2.37v4.47l1.88,3.56h2.83
			l-3.26-6.02C159.61,601.79,160.97,600.28,160.97,597.93z M149.79,608.33h2.55v-5.8h2.27v-2.2h-2.27v-4.79h2.27v-2.31h-4.82V608.33
			z M218.84,559.34c0,10.66,5.42,15.27,11.47,15.94v-4.78c-3.46-0.74-6.15-4.05-6.15-11.16c0-6.46,2.74-9.81,6.15-10.59v-4.82
			C224.29,544.69,218.84,549.76,218.84,559.34z M233.41,543.92v4.82c3.41,0.76,6.19,4.18,6.19,10.65c0,7.2-2.72,10.45-6.19,11.14
			v4.77c6.04-0.64,11.47-5.21,11.47-15.91C244.88,549.76,239.42,544.65,233.41,543.92z M102.24,574.65h7.88v-4.71h-2.77v-8.52h2.77
			v-4.54h-2.77v-7.78h2.77v-4.71h-7.88V574.65z M113.22,556.87v4.54h6.67v-4.54H113.22z M113.22,574.65h7.88v-4.71h-7.88V574.65z
			 M113.22,549.09h7.88v-4.71h-7.88V549.09z M387.84,269.65l-1.76-3.07l-6.82,3.91c-1.15-1.3-2.83-2.13-4.71-2.13
			c-1.49,0-2.86,0.52-3.93,1.38l-43.35-32.35l26.65-62.87l30.66-24.32l-2.2-2.78l-85.15,67.55l-0.22-0.16l-20.13-15.02l-2.12,2.84
			l19.6,14.62l-38.79,30.77l26.83-74.93c0.42,0.09,0.85,0.14,1.3,0.14c1.42,0,2.73-0.48,3.78-1.27l17.41,13.49l2.17-2.8
			l-17.46-13.52c0.25-0.68,0.4-1.42,0.4-2.19c0-2.16-1.09-4.06-2.74-5.2l41.36-81.92l-1.9-0.96l-41.4,81.99
			c-0.52-0.14-1.06-0.22-1.62-0.22c-1.34,0-2.58,0.42-3.6,1.13l-34.77-26.94l0.01-0.18l1.58-40.62l16.57-13.4l-2.23-2.76
			l-68.21,55.16c-0.99-0.88-2.21-1.52-3.56-1.8V0h-2.78v131.16c-0.99,0.15-1.91,0.49-2.73,0.97l-52.33-57.57l-2.62,2.38l52.39,57.62
			c-0.8,1.22-1.27,2.68-1.27,4.25c0,1.39,0.37,2.69,1.01,3.82l-36.13,29.21l-0.2-0.39L91.32,68.39l-3.14,1.63l54.04,104.11
			l-27.18,21.98c-0.97-0.6-2.11-0.96-3.33-0.96c-1.62,0-3.09,0.62-4.21,1.62l-87.47-64.8l-2.11,2.85l11.42,8.46l0.04,0.09
			l37.9,91.36l-49.11,39.71L1.86,264.41L0,267.43l91.16,56.07l-70.37,51.56l-0.21-0.14c-2.41-1.61-5.5-1.79-8.07-0.46
			c-3.9,2.01-5.44,6.82-3.43,10.72c0.97,1.89,2.62,3.29,4.65,3.93c2.03,0.65,4.18,0.47,6.07-0.51c1.81-0.93,3.18-2.51,3.86-4.45
			l0.08-0.24h91.92l-53.88,49.82l2.41,2.6l56.69-52.42h12.31l-42.01,89.55l2.7,2.32l92.83-62.48v112.77h2.78V415.28l0.56,0.39
			l99.03,69.73l2.04-2.9l-54.59-38.44l-32.18-42.63l4.82-3.25l-1.98-2.94l-17.71,11.92v-23.73l0.51,0.24
			c0.33,0.16,0.67,0.23,1.01,0.23h33.99l0.09,0.07l79.3,60.01l2.73-2.33l-30.88-57.76h76.23l0.08,0.24c0.14,0.4,0.28,0.72,0.43,1.02
			c2.01,3.9,6.82,5.44,10.72,3.43c1.89-0.97,3.29-2.62,3.93-4.65c0.65-2.02,0.47-4.18-0.51-6.07c-2.01-3.89-6.81-5.43-10.71-3.43
			l-0.22,0.11l-0.18-0.16l-59.15-52.56l73.72-42.29c1.08,0.88,2.47,1.41,3.97,1.41c3.48,0,6.3-2.82,6.3-6.3
			c0-0.33-0.03-0.64-0.08-0.96L387.84,269.65z M143.88,177.34l0.2,0.39L183,252.71l-65.59-48.59c0.38-0.81,0.6-1.71,0.6-2.66
			c0-0.97-0.22-1.88-0.61-2.69L143.88,177.34z M34.87,147.38l70.76,52.42c-0.14,0.53-0.23,1.08-0.23,1.65
			c0,0.75,0.14,1.47,0.38,2.14l-35.64,28.82L34.87,147.38z M21.37,276.41l47.32-38.27l32.65,78.7l-6.95,4.48l-0.19-0.12
			L21.37,276.41z M23.74,379.14l-0.08-0.24c-0.12-0.33-0.24-0.63-0.38-0.9l-0.13-0.27l0.24-0.18L95.26,325v-0.01l0.17-0.12l7.29-4.7
			l24.46,58.97L23.74,379.14L23.74,379.14z M130.33,377.48l-18.63-44.9l12.31,6.94c0,0.02,0,0.03,0,0.05c0,3.48,2.82,6.3,6.3,6.3
			c1.21,0,2.34-0.35,3.29-0.94l11.37,6.41L130.33,377.48z M136.45,338.15l20.01-7.29l-9.75,17.39l-10.69-6.03
			c0.38-0.81,0.59-1.71,0.59-2.66C136.62,339.08,136.56,338.61,136.45,338.15z M137.1,383.92h7.85l12.21,8.6l-39.69,33.25
			L137.1,383.92z M151.1,383.92h16.33l-7.46,6.25L151.1,383.92z M98.05,468.71l-1.06,0.72l18.39-39.14l43.58-36.5l4.69,3.3
			l-0.27,0.3l-65.09,71.16L98.05,468.71z M183.17,411.42l-77.42,52.1l59.65-65.2l18.2,12.81L183.17,411.42z M186.71,408.99
			l-24.94-17.56l8.97-7.51h14.46c0.34,0,0.68-0.08,1.01-0.23l0.51-0.24L186.71,408.99L186.71,408.99z M186.71,379.61l-0.51-0.24
			c-0.33-0.16-0.67-0.23-1.01-0.23h-51.73l14.61-26.05l0.31,0.17l38.33,21.61L186.71,379.61L186.71,379.61z M186.71,370.81
			l-18.49-10.42l18.49-14.72V370.81z M186.71,342.94l-20.48,16.31L149.8,350l0.17-0.31l36.73-65.52v58.77H186.71z M186.71,276.92
			l-28.65,51.1l-22.43,8.17c-1.12-1.75-3.08-2.92-5.31-2.92c-2.18,0-4.1,1.11-5.23,2.79l-15.58-8.79l-3.76-9.05l0.25-0.16
			l80.71-52.02L186.71,276.92L186.71,276.92z M186.71,261.83l-0.16,0.1l-82.18,52.97l-32.81-79.08l36.32-29.37
			c1.06,0.81,2.38,1.3,3.82,1.3c1.23,0,2.38-0.36,3.35-0.97l71.66,53.08L186.71,261.83L186.71,261.83z M186.71,252.17l-40.02-77.1
			l0.23-0.18l36.64-29.63c0.93,0.63,2,1.05,3.15,1.23L186.71,252.17L186.71,252.17z M202.59,402.63l28.26,37.44l-41-28.87
			L202.59,402.63z M348.05,179.18l-23.71,56.04l-24.18-18.05L348.05,179.18z M243.77,274.67l-12.33-10.96
			c0.46-0.88,0.73-1.88,0.73-2.94c0-1.26-0.38-2.44-1.02-3.42l29.09-28.7L243.77,274.67z M283.72,316.71l-37.11,11.82l-6.33-11.85
			l19-23.5l24.62,21.88c-0.12,0.42-0.21,0.85-0.21,1.31C283.69,316.49,283.71,316.6,283.72,316.71z M220.06,258.33
			c-0.31,0.75-0.49,1.57-0.49,2.43c0,1.42,0.47,2.72,1.26,3.77l-16.13,15.91c-0.77-0.55-1.7-0.88-2.71-0.88
			c-0.87,0-1.67,0.25-2.37,0.66l-10.05-10.12l19.71-21.36L220.06,258.33z M211.68,246.15l28.37-30.75l-1.22,31.38l-9.12,9
			c-1.06-0.82-2.39-1.31-3.84-1.31c-1.33,0-2.56,0.41-3.57,1.11L211.68,246.15z M206.1,282.06l16.27-16.05c1,0.67,2.2,1.06,3.5,1.06
			c1.13,0,2.18-0.3,3.1-0.82l13.52,12.01l-9.12,25.48l-5.1-9.53l-3.12,1.67l6.17,11.54l-2.62,2.08L206,286.64
			c0.42-0.7,0.68-1.52,0.68-2.4C206.67,283.46,206.45,282.71,206.1,282.06z M232.33,309.33l11.02,20.6l-37.79,20.43
			c-0.28-0.33-0.58-0.63-0.94-0.87l18.82-33.09L232.33,309.33z M239.19,314.65l-4.48-8.38l9.48-26.49l13.49,11.99L239.19,314.65z
			 M280.41,172.31l-18.57,51.77l-20.8,20.52l1.23-31.6l0.09-0.1l37.68-40.83C280.16,172.15,280.29,172.23,280.41,172.31z
			 M241.56,176.82l-10.5-7.8l9.42-11.43c0.52,0.41,1.13,0.71,1.79,0.87L241.56,176.82z M242.4,209.72l1.05-27.07l14.19,10.55
			L242.4,209.72z M245.15,139.18l32.72,25.35c-0.31,0.74-0.48,1.55-0.48,2.41c0,1.35,0.43,2.6,1.15,3.62l-18.85,20.42l-0.54-0.45
			l0.31-0.41l-15.83-11.76l0.77-19.9c2.08-0.48,3.63-2.33,3.63-4.55c0-2.09-1.38-3.85-3.28-4.44L245.15,139.18z M244.71,95.8
			l-1.46,37.43l-22.89-17.74L244.71,95.8z M195.1,135.92l22.43-18.14l25.56,19.8l-0.46,11.72c-2.24,0.35-3.96,2.27-3.96,4.61
			c0,0.71,0.17,1.38,0.45,1.98l-9.77,11.86l-34.45-25.6c0.48-1.01,0.76-2.14,0.76-3.33C195.66,137.8,195.46,136.82,195.1,135.92z
			 M189.49,146.42c1.19-0.25,2.28-0.77,3.2-1.5l34.4,25.57l-37.61,45.65v-69.72H189.49z M189.49,257.67l0.05-0.05l-0.05-0.19v-37.95
			l0.08-0.1l39.23-47.63l12.59,9.35l-1.21,31.01l-0.09,0.1l-50.61,54.84v-9.38H189.49z M189.49,273.05l8.59,8.65
			c-0.48,0.74-0.77,1.61-0.77,2.56c0,0.99,0.31,1.91,0.84,2.66l-8.66,8.54L189.49,273.05L189.49,273.05z M189.49,298.45l10.25-10.11
			c0.67,0.37,1.43,0.6,2.25,0.6c0.93,0,1.8-0.28,2.53-0.75l22.5,22.66l-37.53,29.89V298.45z M189.49,343.45l28.28-22.52
			l-15.76,27.75c-0.01,0-0.01,0-0.01,0c-2.59,0-4.68,2.1-4.68,4.68c0,0.47,0.09,0.92,0.22,1.35l-8.04,4.35v-15.61H189.49z
			 M191.01,379.14c-0.34,0-0.68,0.08-1.01,0.23l-0.51,0.24v-18.14l9.1-4.92c0.85,0.91,2.06,1.49,3.41,1.49
			c2.59,0,4.68-2.1,4.68-4.68c0-0.38-0.06-0.75-0.14-1.1l37.82-20.45l4.51,8.43l-0.2,0.19l-40.97,38.71L191.01,379.14L191.01,379.14
			z M210.79,379.14l39.11-36.95l19.76,36.95H210.79z M300.32,436.48l-69.45-52.56h41.35L300.32,436.48z M353.54,376.95l-0.17,0.25
			c-0.34,0.53-0.62,1.1-0.83,1.7l-0.08,0.24h-78.78l-26.04-48.7l0.41-0.13l36.31-11.57c0.81,1.38,2.3,2.32,4.02,2.32
			c0.66,0,1.28-0.14,1.85-0.38L353.54,376.95z M368.57,276.62l-74.5,42.74l-1.37-1.22c0.22-0.55,0.35-1.14,0.35-1.77
			c0-2.59-2.1-4.68-4.68-4.68c-0.82,0-1.58,0.23-2.25,0.6l-24.61-21.87l0.21-0.26l24.68-30.53l-1.65-1.34l-24.83,30.72l-14.44-12.83
			l7.82-21.84l0.08-0.06l43.91-34.83l25.63,19.13l-15.53,36.71l3.26,1.38l15.19-35.91l42.74,31.89c-0.21,0.63-0.33,1.31-0.33,2.01
			C368.25,275.35,368.36,276.01,368.57,276.62z"/>
	</g>
</g>
</svg>
